# xmcd
#
# Track frame offsets:
#	150
#	11299
#	21597
#	32573
#	44807
#	53243
#	65015
#	87735
#	105898
#	136930
#	151516
#	170184
#	179087
#	195424
#	213409
#	228178
#	242395
#	252841
#	269153
#	295922
#	324057
#	338387
#
# Disc length: 4773 seconds
#
# Revision: 0
# Processed by: cddbd v1.4PL0 Copyright (c) Steve Scherf et al.
# Submitted via: dBpowerAMP V4.0
#
DISCID=3212a316
DTITLE=Cuby and The Blizzards - Singles A's and B's II
DYEAR=2002
DGENRE=Blues
TTITLE0=I'm So Restless
TTITLE1=Your Body, Not Your Soul
TTITLE2=Sweet Mary
TTITLE3=Richard Cory
TTITLE4=Things I Remember
TTITLE5=Feeling Like A Suitcase
TTITLE6=Don't Know Which Way To Go
TTITLE7=Crying Tears
TTITLE8=Somebody Will Know Someday
TTITLE9=Checking Up On My Baby
TTITLE10=116 A Queensway
TTITLE11=Because Of Illness
TTITLE12=Wee Wee Baby
TTITLE13=Easy To Leave, Hard To Forget
TTITLE14=Straight No Chaser
TTITLE15=Everytime
TTITLE16=Pigeon Girl
TTITLE17=Perfect song
TTITLE18=Solid Sender
TTITLE19=Bad News
TTITLE20=Sleepin´ Dog 
TTITLE21=Help Me
EXTD=Cuby and The Blizzards - Singles A's and B's Disc II
EXTT0=
EXTT1=
EXTT2=
EXTT3=
EXTT4=
EXTT5=
EXTT6=
EXTT7=
EXTT8=
EXTT9=
EXTT10=
EXTT11=
EXTT12=
EXTT13=
EXTT14=
EXTT15=
EXTT16=
EXTT17=
EXTT18=
EXTT19=
EXTT20=
EXTT21=
PLAYORDER=
